<svg xmlns="http://www.w3.org/2000/svg" viewBox="0 0 400 140" width="400" height="140">
  <defs>
    <linearGradient id="gl" x1="0%" y1="0%" x2="100%" y2="100%">
      <stop offset="0%" stop-color="#a855f7"/>
      <stop offset="50%" stop-color="#7c3aed"/>
      <stop offset="100%" stop-color="#4f46e5"/>
    </linearGradient>
    <linearGradient id="mg" x1="0%" y1="0%" x2="100%" y2="0%">
      <stop offset="0%" stop-color="#f0abfc"/>
      <stop offset="30%" stop-color="#c084fc"/>
      <stop offset="70%" stop-color="#818cf8"/>
      <stop offset="100%" stop-color="#6366f1"/>
    </linearGradient>
    <linearGradient id="tg" x1="0%" y1="0%" x2="100%" y2="0%">
      <stop offset="0%" stop-color="#a78bfa"/>
      <stop offset="100%" stop-color="#818cf8"/>
    </linearGradient>
  </defs>

  <g transform="translate(75, 75)">
    <circle r="52" fill="none" stroke="url(#gl)" stroke-width="2" opacity="0.3"/>
    <rect x="-34" y="-34" width="68" height="68" fill="none" stroke="url(#gl)" stroke-width="2" opacity="0.7"/>
    <rect x="-34" y="-34" width="68" height="68" fill="none" stroke="url(#gl)" stroke-width="2" opacity="0.5" transform="rotate(30)"/>
    <rect x="-34" y="-34" width="68" height="68" fill="none" stroke="url(#gl)" stroke-width="2" opacity="0.3" transform="rotate(60)"/>
    <circle r="24" fill="none" stroke="url(#gl)" stroke-width="1.5" opacity="0.4"/>
    <circle cx="0" cy="-52" r="5" fill="#a855f7" opacity="0.3"/>
    <circle cx="52" cy="0" r="5" fill="#7c3aed" opacity="0.3"/>
    <circle cx="0" cy="52" r="5" fill="#4f46e5" opacity="0.3"/>
    <circle cx="-52" cy="0" r="5" fill="#a855f7" opacity="0.3"/>
    <circle cx="0" cy="-52" r="3" fill="#a855f7"/>
    <circle cx="52" cy="0" r="3" fill="#7c3aed"/>
    <circle cx="0" cy="52" r="3" fill="#4f46e5"/>
    <circle cx="-52" cy="0" r="3" fill="#a855f7"/>
    <circle r="10" fill="#7c3aed" opacity="0.25"/>
    <circle r="5" fill="url(#gl)"/>
  </g>

  <text x="140" y="86" text-anchor="start" font-family="'SF Mono', 'Fira Code', Menlo, Consolas, monospace" font-size="72" font-weight="700" fill="url(#mg)" letter-spacing="6">sigil</text>
  <text x="260" y="116" text-anchor="middle" font-family="'SF Mono', 'Fira Code', Menlo, Consolas, monospace" font-size="11" font-weight="400" fill="url(#tg)" letter-spacing="4" opacity="0.7">autonomous code agent</text>
</svg>
